<mxfile host="Electron" agent="Mozilla/5.0 (Windows NT 10.0; Win64; x64) AppleWebKit/537.36 (KHTML, like Gecko) draw.io/26.0.9 Chrome/128.0.6613.186 Electron/32.2.5 Safari/537.36" version="26.0.9">
  <diagram name="Page-1" id="86R5FVlfNCrJObd2xNu8">
    <mxGraphModel dx="1195" dy="703" grid="1" gridSize="10" guides="1" tooltips="1" connect="1" arrows="1" fold="1" page="1" pageScale="1" pageWidth="827" pageHeight="1169" math="0" shadow="0">
      <root>
        <mxCell id="0" />
        <mxCell id="1" parent="0" />
        <mxCell id="eEoRAQe1DEveV7BVmvXU-4" style="edgeStyle=orthogonalEdgeStyle;rounded=0;orthogonalLoop=1;jettySize=auto;html=1;entryX=0.5;entryY=0;entryDx=0;entryDy=0;" edge="1" parent="1" source="eEoRAQe1DEveV7BVmvXU-2" target="eEoRAQe1DEveV7BVmvXU-3">
          <mxGeometry relative="1" as="geometry" />
        </mxCell>
        <mxCell id="eEoRAQe1DEveV7BVmvXU-2" value="" style="ellipse;whiteSpace=wrap;html=1;aspect=fixed;fillColor=#000000;" vertex="1" parent="1">
          <mxGeometry x="240" y="20" width="40" height="40" as="geometry" />
        </mxCell>
        <mxCell id="eEoRAQe1DEveV7BVmvXU-15" style="edgeStyle=orthogonalEdgeStyle;rounded=0;orthogonalLoop=1;jettySize=auto;html=1;entryX=0.5;entryY=0;entryDx=0;entryDy=0;" edge="1" parent="1" source="eEoRAQe1DEveV7BVmvXU-3">
          <mxGeometry relative="1" as="geometry">
            <mxPoint x="260" y="210" as="targetPoint" />
          </mxGeometry>
        </mxCell>
        <mxCell id="eEoRAQe1DEveV7BVmvXU-3" value="Open the child register page" style="rounded=1;whiteSpace=wrap;html=1;" vertex="1" parent="1">
          <mxGeometry x="200" y="100" width="120" height="60" as="geometry" />
        </mxCell>
        <mxCell id="eEoRAQe1DEveV7BVmvXU-32" style="edgeStyle=orthogonalEdgeStyle;rounded=0;orthogonalLoop=1;jettySize=auto;html=1;entryX=0.5;entryY=0;entryDx=0;entryDy=0;" edge="1" parent="1" source="eEoRAQe1DEveV7BVmvXU-14" target="eEoRAQe1DEveV7BVmvXU-31">
          <mxGeometry relative="1" as="geometry" />
        </mxCell>
        <mxCell id="eEoRAQe1DEveV7BVmvXU-14" value="" style="shape=collate;html=1;" vertex="1" parent="1">
          <mxGeometry x="160" y="270" width="40" height="40" as="geometry" />
        </mxCell>
        <mxCell id="eEoRAQe1DEveV7BVmvXU-30" style="edgeStyle=orthogonalEdgeStyle;rounded=0;orthogonalLoop=1;jettySize=auto;html=1;exitX=0.111;exitY=0.867;exitDx=0;exitDy=0;exitPerimeter=0;" edge="1" parent="1" source="eEoRAQe1DEveV7BVmvXU-29" target="eEoRAQe1DEveV7BVmvXU-14">
          <mxGeometry relative="1" as="geometry">
            <mxPoint x="182" y="280" as="targetPoint" />
          </mxGeometry>
        </mxCell>
        <mxCell id="eEoRAQe1DEveV7BVmvXU-29" value="" style="rounded=0;whiteSpace=wrap;html=1;fillColor=#000000;" vertex="1" parent="1">
          <mxGeometry x="160" y="210" width="200" height="10" as="geometry" />
        </mxCell>
        <mxCell id="eEoRAQe1DEveV7BVmvXU-31" value="get user ID" style="rounded=1;whiteSpace=wrap;html=1;" vertex="1" parent="1">
          <mxGeometry x="120" y="330" width="120" height="60" as="geometry" />
        </mxCell>
      </root>
    </mxGraphModel>
  </diagram>
</mxfile>
